<?xml version="1.0" standalone="no"?>
<!DOCTYPE svg PUBLIC "-//W3C//DTD SVG 20010904//EN"
 "http://www.w3.org/TR/2001/REC-SVG-20010904/DTD/svg10.dtd">
<svg version="1.0" xmlns="http://www.w3.org/2000/svg"
 width="1000.000000pt" height="700.000000pt" viewBox="0 0 1000.000000 700.000000"
 preserveAspectRatio="xMidYMid meet">

<g transform="translate(0.000000,700.000000) scale(0.100000,-0.100000)"
fill="#000000" stroke="none">
<path d="M8685 6758 c-27 -4 -68 -9 -90 -12 -64 -8 -124 -25 -165 -46 -22 -11
-46 -20 -55 -20 -8 0 -24 -9 -36 -21 -11 -11 -36 -27 -55 -35 -19 -8 -43 -22
-54 -32 -62 -54 -134 -130 -186 -198 -32 -43 -80 -99 -106 -125 -27 -25 -48
-51 -48 -58 0 -6 -4 -11 -9 -11 -10 0 -41 -84 -41 -111 0 -36 63 -129 87 -129
6 0 16 -6 20 -13 10 -16 158 -70 175 -64 7 2 27 0 43 -5 40 -12 189 -11 212 1
31 16 140 61 149 61 12 0 94 93 94 108 0 6 4 12 9 12 5 0 41 96 81 214 39 118
78 220 86 226 8 7 14 17 14 22 0 18 55 81 91 103 20 13 54 28 77 34 94 26 39
84 -90 97 -94 9 -155 10 -203 2z m-60 -177 c7 -12 -63 -188 -105 -268 -61
-115 -134 -192 -219 -232 -48 -22 -70 -26 -146 -26 -85 0 -185 24 -185 44 0
18 172 221 221 260 29 25 59 49 64 55 50 53 170 123 260 152 77 26 101 29 110
15z"/>
<path d="M5823 6523 c-7 -2 -13 -10 -13 -17 0 -20 -59 -90 -118 -138 -30 -25
-91 -49 -133 -54 -9 0 -29 -5 -45 -9 -59 -16 -253 -22 -279 -8 -11 6 -26 8
-33 6 -7 -3 -33 2 -58 11 -24 8 -50 13 -57 10 -7 -2 -38 4 -69 15 -31 11 -59
17 -61 14 -3 -2 -29 2 -59 11 -100 28 -148 33 -285 31 -143 -3 -189 -12 -274
-55 -51 -27 -90 -54 -139 -96 -19 -17 -69 -61 -110 -98 -41 -36 -79 -66 -84
-66 -6 0 -19 -9 -31 -20 -24 -22 -108 -57 -166 -69 -34 -7 -101 -6 -184 3 -22
3 -76 16 -119 30 -43 14 -82 23 -86 21 -4 -3 -39 6 -78 19 -105 36 -255 49
-377 34 -114 -15 -274 -78 -355 -139 -64 -49 -170 -152 -170 -165 0 -8 -4 -14
-8 -14 -5 0 -26 -26 -48 -57 -21 -32 -45 -64 -51 -71 -7 -7 -13 -19 -13 -26 0
-7 -9 -23 -20 -36 -11 -13 -20 -28 -20 -35 0 -6 -10 -17 -22 -23 -35 -18 -120
-34 -130 -24 -9 9 20 102 32 102 5 0 14 16 20 35 6 19 16 35 21 35 5 0 9 6 9
13 0 6 14 26 30 44 17 18 30 37 30 42 0 6 5 11 10 11 6 0 14 8 17 17 12 30
178 187 218 205 14 6 25 15 25 20 0 5 24 20 54 33 30 13 57 29 61 35 3 6 33
24 66 40 57 29 66 41 53 74 -10 26 -41 21 -169 -24 -27 -9 -70 -23 -95 -30
-64 -17 -315 -134 -326 -152 -3 -4 -22 -12 -42 -17 -33 -9 -155 -81 -191 -113
-8 -7 -22 -17 -32 -23 -9 -5 -36 -26 -59 -45 -22 -19 -51 -43 -62 -52 -12 -10
-24 -18 -28 -18 -10 0 -119 -108 -170 -170 -48 -57 -52 -63 -89 -131 -13 -24
-28 -50 -34 -57 -6 -7 -20 -41 -31 -75 -19 -57 -25 -64 -71 -89 -27 -14 -55
-31 -62 -37 -6 -6 -31 -21 -55 -33 -47 -24 -47 -25 -98 -66 -19 -15 -48 -36
-65 -46 -31 -19 -53 -38 -83 -68 -9 -10 -20 -18 -24 -18 -8 0 -22 -13 -175
-158 -62 -58 -113 -112 -113 -118 0 -7 -11 -21 -24 -32 -13 -10 -35 -34 -48
-53 -23 -35 -92 -123 -115 -147 -6 -6 -15 -21 -18 -32 -3 -11 -11 -20 -16 -20
-5 0 -9 -7 -9 -15 0 -8 -4 -15 -9 -15 -9 0 -17 -12 -55 -85 -9 -16 -25 -43
-36 -60 -11 -16 -27 -47 -36 -67 -9 -21 -20 -38 -25 -38 -4 0 -14 -19 -21 -42
-6 -24 -18 -47 -25 -51 -7 -4 -22 -40 -33 -80 -12 -40 -28 -77 -36 -83 -16
-13 -106 -273 -98 -286 3 -4 -4 -38 -16 -74 -12 -36 -23 -77 -25 -92 -2 -15
-8 -56 -14 -92 -35 -224 -43 -572 -16 -755 2 -11 6 -42 10 -70 4 -27 13 -74
21 -104 7 -29 12 -57 9 -61 -2 -4 4 -25 14 -46 9 -22 18 -55 20 -74 2 -46 19
-108 31 -115 5 -3 7 -12 4 -19 -3 -7 13 -53 35 -101 23 -48 41 -94 41 -101 0
-8 11 -37 24 -66 68 -152 101 -218 106 -218 4 0 17 -23 30 -50 13 -28 26 -50
30 -50 4 0 15 -18 25 -40 10 -22 22 -40 26 -40 4 0 10 -8 14 -19 3 -10 13 -28
23 -39 9 -11 24 -30 32 -42 8 -12 20 -28 25 -34 6 -6 26 -34 45 -61 42 -61
272 -305 288 -305 3 0 12 -7 21 -15 34 -32 80 -72 111 -96 18 -13 47 -36 65
-51 18 -16 36 -28 39 -28 8 0 63 -38 84 -57 7 -7 20 -13 28 -13 8 0 14 -4 14
-10 0 -5 15 -16 32 -25 35 -16 59 -30 97 -58 13 -9 31 -17 41 -17 10 0 28 -8
41 -19 13 -10 64 -33 113 -50 49 -17 92 -35 95 -39 10 -14 150 -62 164 -56 7
2 51 -8 98 -24 77 -27 131 -40 199 -46 14 -2 39 -6 55 -9 136 -29 601 -24 760
8 39 8 88 16 110 19 44 5 123 27 170 46 17 7 34 12 39 11 4 -1 13 2 20 7 6 5
31 14 56 21 25 7 59 18 75 25 17 6 33 10 37 8 4 -1 22 7 40 18 18 11 40 20 49
20 19 0 282 134 324 165 17 12 45 30 64 40 19 9 39 21 45 26 6 5 34 24 61 41
28 18 52 35 55 39 3 3 16 12 29 19 28 14 29 15 96 76 41 38 53 44 75 38 29 -8
78 -8 133 0 60 9 160 66 222 126 172 167 333 327 336 337 6 16 139 153 178
183 18 14 41 33 49 43 9 9 21 17 27 17 6 0 27 14 45 30 19 17 39 29 45 26 6
-2 22 2 34 9 16 8 48 10 95 7 148 -11 289 -2 361 23 59 20 118 48 138 65 84
70 151 140 183 190 21 33 42 60 46 60 4 0 8 6 8 14 0 8 7 21 15 30 8 8 20 25
25 38 6 13 21 41 35 63 27 45 39 70 49 102 9 29 -23 39 -62 19 -16 -8 -32 -13
-35 -10 -3 3 -15 0 -27 -6 -38 -20 -202 -29 -315 -17 -51 5 -273 82 -295 102
-9 8 -20 15 -24 15 -16 0 -126 92 -126 106 0 8 12 19 28 25 100 40 165 80 217
133 11 12 40 34 65 51 25 16 54 37 65 47 27 23 112 67 150 78 66 18 170 68
171 81 1 18 -36 59 -53 59 -7 0 -13 5 -13 10 0 6 -6 10 -12 10 -7 0 -40 14
-73 30 -33 16 -76 32 -95 36 -81 13 -81 12 -74 42 15 58 111 123 228 152 63
16 148 18 261 6 42 -5 308 -97 320 -112 11 -13 336 -121 375 -124 80 -7 244 7
295 25 53 19 209 103 235 127 16 14 33 28 38 30 13 4 92 77 92 84 0 3 13 19
29 36 17 18 36 43 43 57 7 15 17 31 21 36 24 30 76 118 82 137 4 13 13 33 21
46 25 38 75 184 86 247 14 83 15 172 2 185 -13 13 -44 2 -44 -16 0 -8 -4 -14
-9 -14 -5 0 -13 -10 -16 -21 -12 -38 -137 -152 -204 -188 -69 -37 -189 -63
-250 -55 -51 6 -159 44 -172 60 -6 8 -15 14 -20 14 -9 0 -109 67 -119 79 -12
15 -109 81 -119 81 -6 0 -11 5 -11 10 0 6 -7 13 -15 16 -8 3 -32 22 -53 43
-61 56 -103 91 -113 91 -5 0 -9 4 -9 9 0 5 -16 15 -35 22 -19 7 -35 16 -35 20
0 10 -96 41 -140 46 -19 2 -47 5 -62 6 -15 2 -30 6 -33 9 -8 7 44 149 61 169
8 8 14 21 14 27 0 7 4 12 8 12 5 0 21 13 38 29 16 15 47 37 69 49 85 43 320
73 440 57 22 -3 58 -7 80 -10 22 -2 73 -16 114 -29 40 -14 77 -24 81 -21 4 3
39 -6 78 -19 159 -54 423 -52 517 6 16 10 37 18 46 18 19 0 99 72 99 89 0 6
-11 17 -25 23 -14 6 -25 14 -25 18 0 4 -20 13 -44 20 -25 7 -47 18 -49 24 -3
7 -23 18 -46 25 -23 6 -41 16 -41 21 0 4 -17 14 -37 21 -57 18 -93 41 -93 60
0 14 12 16 93 14 92 -2 195 6 297 24 82 14 222 50 235 61 7 5 14 7 17 4 4 -3
24 4 47 15 22 12 48 21 59 21 10 0 22 4 28 9 5 5 49 30 98 56 48 26 114 63
145 83 31 20 61 39 68 42 14 6 126 103 163 141 88 91 140 149 140 158 0 6 5
11 10 11 6 0 14 8 17 18 4 9 17 28 30 42 13 14 40 51 60 83 21 31 41 57 45 57
4 0 8 6 8 13 0 8 9 22 20 32 11 10 20 23 20 29 0 6 14 27 30 46 16 19 34 40
40 47 5 7 10 16 10 21 0 18 166 178 215 207 100 60 252 93 328 71 26 -8 27 -7
27 28 0 24 -5 36 -14 36 -7 0 -25 9 -40 21 -15 12 -51 24 -86 29 -32 5 -65 12
-71 16 -16 10 -76 15 -204 17 -112 2 -182 -5 -245 -25 -19 -7 -42 -13 -50 -14
-42 -6 -159 -60 -210 -97 -14 -10 -50 -33 -80 -52 -30 -19 -64 -41 -75 -50
-105 -83 -274 -186 -385 -234 -88 -38 -92 -39 -150 -46 -30 -4 -68 -10 -85
-13 -38 -7 -197 -5 -250 3 -22 3 -56 7 -75 10 -72 9 -158 29 -258 62 -56 18
-113 33 -125 33 -13 0 -77 19 -142 41 -66 23 -129 41 -140 41 -11 0 -42 7 -68
15 -27 8 -63 16 -80 18 -18 1 -59 8 -92 14 -138 28 -355 31 -396 6 -3 -2 -25
-5 -50 -6 -24 -1 -53 -7 -64 -12 -10 -5 -26 -11 -35 -12 -22 -2 -57 -18 -241
-111 -92 -46 -174 -84 -183 -84 -9 0 -16 -3 -16 -7 0 -12 -145 -82 -225 -108
-112 -37 -176 -47 -278 -41 -130 6 -126 6 -165 18 -46 14 -38 37 22 70 70 37
83 47 145 103 72 66 100 97 101 113 0 7 7 15 15 18 8 4 15 10 15 15 0 4 14 29
31 54 48 71 116 284 119 375 5 123 4 141 -11 151 -15 10 -18 10 -36 2z m-113
-315 c-1 -27 -48 -126 -87 -184 -23 -33 -68 -84 -100 -112 -32 -29 -93 -83
-136 -121 -44 -39 -91 -72 -106 -76 -20 -4 -64 12 -184 70 -301 145 -453 184
-597 151 -41 -9 -101 -27 -134 -41 l-58 -24 6 30 c7 36 -12 38 -67 9 -88 -47
-33 6 71 67 105 63 73 73 -53 17 -96 -43 -155 -65 -155 -58 0 10 157 106 243
148 130 63 194 79 312 79 107 0 96 3 318 -87 100 -40 174 -56 256 -56 76 1
124 13 232 59 l91 40 -7 -26 c-6 -25 -5 -26 17 -11 13 8 45 43 73 76 48 61 65
74 65 50z m3620 -195 c0 -5 -28 -33 -63 -64 -34 -31 -93 -97 -132 -148 -189
-250 -337 -381 -538 -476 -166 -78 -260 -99 -422 -92 -107 4 -142 10 -200 32
-93 35 -170 72 -225 109 -44 30 -354 298 -365 316 -3 5 61 -14 142 -41 296
-100 515 -151 643 -152 96 0 296 32 384 62 100 35 250 123 466 275 211 148
310 205 310 179z m-6155 -104 c82 -12 117 -22 205 -57 95 -37 141 -42 269 -26
63 8 116 12 118 10 13 -13 -143 -51 -272 -65 -55 -7 -104 -16 -109 -21 -27
-27 231 -24 334 5 94 26 111 16 25 -15 -44 -16 -76 -29 -71 -29 5 -1 7 -4 4
-7 -3 -3 -81 -11 -173 -19 -162 -13 -186 -17 -171 -32 15 -15 259 -7 351 12
171 34 212 31 103 -6 -72 -24 -38 -24 152 2 105 14 156 17 163 10 13 -13 18
-11 -178 -56 -106 -23 -172 -44 -195 -59 -35 -24 -125 -48 -230 -61 -30 -4
-68 -14 -84 -22 -26 -14 -35 -13 -80 1 -28 8 -72 18 -98 21 -26 4 -54 13 -62
21 -9 8 -34 14 -62 14 -48 0 -114 18 -114 31 0 4 -17 3 -37 -3 -20 -5 -55 -7
-78 -3 -42 7 -141 15 -185 14 -14 -1 -41 -1 -60 0 -19 1 -70 1 -114 0 -46 0
-77 3 -75 9 8 20 167 157 232 200 186 120 323 157 492 131z m3753 -194 c40 -9
81 -20 90 -25 9 -5 51 -24 92 -43 104 -47 274 -161 394 -266 116 -102 211
-191 203 -191 -4 0 -47 18 -98 40 -50 23 -146 59 -213 82 l-121 41 -180 0
c-99 0 -200 -5 -225 -11 -160 -38 -263 -77 -450 -172 -150 -75 -269 -121 -375
-145 -38 -8 -81 -18 -95 -21 -19 -4 -1 18 70 88 110 107 177 197 221 294 71
160 58 144 165 203 259 142 345 163 522 126z m-2201 -95 c119 -20 328 -80 458
-130 39 -15 79 -30 89 -34 10 -4 17 -9 14 -12 -3 -2 -41 7 -84 20 -404 127
-605 152 -864 109 -52 -8 -102 -15 -110 -14 -8 0 -72 2 -142 4 -71 2 -130 6
-133 9 -8 7 151 32 195 30 19 0 50 4 68 9 95 31 355 35 509 9z m-2825 -90
c-38 -75 -69 -106 -56 -56 10 39 -12 32 -41 -14 -37 -59 -61 -53 -29 6 14 26
24 56 22 66 -2 13 9 29 31 47 30 23 34 23 27 6 -15 -36 -19 -65 -8 -65 6 0 28
20 49 44 21 24 39 43 40 42 1 -1 -15 -35 -35 -76z m58 -19 c-11 -23 -25 -41
-30 -41 -14 0 -13 4 17 55 33 54 43 44 13 -14z m-269 2 c-16 -21 -42 -64 -56
-95 -25 -55 -41 -75 -51 -65 -11 11 53 121 105 180 36 40 38 25 2 -20z m3039
3 c69 -13 179 -41 245 -62 66 -20 140 -41 165 -45 230 -42 250 -44 445 -44
189 0 306 13 382 42 9 4 14 2 10 -3 -9 -16 -206 -111 -297 -145 -181 -66 -206
-71 -355 -72 -184 -1 -242 15 -489 138 l-191 95 80 1 c44 1 101 1 128 1 53 0
70 13 35 27 -38 14 -255 41 -335 41 -65 0 -213 32 -213 46 0 2 60 4 133 4 99
0 164 -6 257 -24z m-3012 -67 c-33 -53 -48 -68 -48 -49 0 16 59 100 70 100 5
0 -5 -23 -22 -51z m952 1 c12 -7 12 -12 2 -22 -6 -6 -12 -16 -12 -20 0 -16 76
-7 108 12 41 25 83 25 237 1 192 -31 338 -70 514 -138 94 -36 177 -92 138 -93
-10 0 -26 -7 -34 -16 -21 -20 -36 -17 -210 45 -199 70 -313 88 -463 72 -63 -6
-169 -16 -235 -22 -289 -23 -413 -51 -790 -179 -261 -89 -391 -151 -635 -302
-155 -96 -421 -286 -487 -347 -46 -44 -45 -19 3 43 58 77 32 63 -42 -21 -159
-183 -300 -459 -367 -723 -8 -29 -19 -56 -24 -57 -12 -4 -46 125 -45 169 2 64
219 449 334 592 126 158 224 263 331 359 66 58 72 61 117 59 38 -1 54 4 83 26
20 15 36 30 37 35 0 4 -18 7 -40 7 -57 0 -51 18 23 71 202 147 492 285 764
363 211 60 648 115 693 86z m1644 -105 c165 -34 257 -66 327 -116 36 -25 30
-39 -17 -39 -19 0 -33 -4 -30 -8 7 -11 154 -84 271 -134 106 -45 226 -78 287
-78 55 0 345 76 511 133 70 24 127 41 127 37 0 -19 -115 -102 -230 -168 -63
-35 -225 -92 -264 -92 -35 0 -33 15 4 30 17 7 29 15 26 17 -2 2 -62 -6 -133
-18 -271 -47 -460 -22 -814 107 -85 31 -167 60 -184 65 -201 63 -260 -2 -129
-141 86 -92 204 -166 328 -205 67 -22 70 -24 89 -71 16 -38 21 -73 21 -159 1
-130 -14 -180 -78 -259 -23 -28 -61 -83 -83 -121 -23 -39 -53 -85 -67 -104
-14 -19 -26 -39 -26 -43 0 -13 37 -9 49 6 17 20 50 26 59 10 6 -11 12 -11 32
0 14 7 24 18 22 25 -1 7 12 4 36 -8 28 -14 57 -46 102 -112 78 -113 85 -153
47 -244 -13 -33 -34 -91 -46 -130 -61 -194 -126 -391 -134 -402 -6 -8 -17 -9
-40 -2 -52 16 -157 11 -217 -10 -77 -27 -167 -68 -174 -80 -9 -14 89 -24 259
-25 141 -1 153 -3 208 -28 55 -26 187 -140 187 -161 0 -6 7 -18 15 -27 13 -14
13 -22 1 -61 -40 -130 -51 -197 -50 -304 2 -155 35 -265 79 -265 24 0 61 39
87 92 14 29 42 114 62 188 64 235 86 303 122 385 95 212 158 308 298 450 56
58 101 105 98 105 -2 0 -20 -10 -39 -21 -49 -31 -53 -15 -7 32 55 57 171 134
267 179 84 39 195 76 203 67 3 -3 -46 -43 -108 -90 -175 -132 -372 -310 -406
-366 -34 -55 -74 -166 -92 -256 -6 -33 -20 -98 -29 -145 -10 -47 -21 -110 -25
-140 l-6 -55 29 35 c16 19 33 32 36 28 16 -15 -16 -173 -54 -266 -102 -254
-148 -340 -260 -487 -54 -71 -202 -227 -209 -220 -3 3 -6 40 -8 83 -4 145 -37
209 -101 199 -60 -10 -115 -44 -201 -123 -46 -42 -85 -74 -88 -71 -3 3 11 30
30 60 79 123 169 332 197 456 16 71 19 157 8 245 -24 205 -165 364 -397 446
-61 22 -63 22 -77 4 -12 -18 -29 -19 -232 -19 -201 0 -221 2 -253 20 -41 24
-42 26 -394 540 -56 83 -117 171 -135 196 -57 81 -57 84 73 469 64 190 124
356 134 370 42 58 58 60 402 59 350 -1 418 -6 456 -35 39 -29 171 -226 196
-291 17 -46 19 -67 13 -127 -9 -102 10 -74 31 44 36 208 -2 359 -122 490 -110
119 -270 189 -519 230 -90 14 -130 18 -182 19 -24 1 -43 5 -43 9 0 5 41 19 91
31 150 36 249 96 249 150 0 29 -55 97 -124 153 -36 29 -62 56 -58 60 10 10
133 28 252 38 144 12 278 2 464 -35z m2932 -89 c97 -15 218 -58 302 -109 51
-31 69 -53 35 -43 -10 3 -56 15 -103 26 -47 12 -119 32 -160 44 -41 13 -126
36 -187 52 -111 28 -127 39 -68 46 35 5 59 2 181 -16z m829 -115 c33 -6 93
-12 133 -15 41 -2 76 -7 79 -9 2 -3 -22 -11 -54 -17 -84 -18 -195 -1 -262 41
-64 39 -66 53 -3 29 26 -10 75 -23 107 -29z m-4375 24 c0 -8 -2 -15 -4 -15 -2
0 -6 7 -10 15 -3 8 -1 15 4 15 6 0 10 -7 10 -15z m-1343 -1 c-3 -3 -12 -4 -19
-1 -8 3 -5 6 6 6 11 1 17 -2 13 -5z m-82 -21 c-273 -85 -609 -213 -639 -244
-18 -17 8 -10 175 46 392 132 611 197 644 191 34 -7 40 -11 231 -158 67 -51
174 -133 238 -182 64 -49 128 -102 141 -118 49 -58 48 -67 -84 -455 -72 -213
-129 -365 -141 -378 -12 -13 -38 -30 -58 -38 -97 -41 -823 -271 -867 -275 -61
-5 -50 -12 -390 245 -151 115 -257 202 -268 221 -11 18 -19 48 -20 67 -1 20
41 160 98 329 55 162 97 297 94 301 -6 5 -91 -41 -219 -119 l-45 -27 30 26
c17 14 81 60 142 101 98 64 143 108 143 138 0 9 -31 -6 -163 -81 -149 -84
-149 -70 1 28 243 159 584 308 852 374 112 28 186 33 105 8z m1435 -13 c0 -5
-2 -10 -4 -10 -3 0 -8 5 -11 10 -3 6 -1 10 4 10 6 0 11 -4 11 -10z m3207 -189
c4 -15 18 -19 83 -24 86 -7 142 -18 240 -50 76 -24 209 -89 193 -94 -6 -2 -51
5 -100 17 -48 12 -140 24 -203 27 -316 15 -808 -145 -1040 -338 -47 -39 -60
-56 -60 -78 0 -48 32 -66 155 -86 l70 -12 -38 -17 c-21 -9 -77 -26 -125 -37
-116 -28 -219 -21 -270 17 -58 45 -77 119 -47 190 22 54 90 129 159 178 83 59
314 186 408 224 138 57 340 98 501 101 59 1 70 -2 74 -18z m-1052 -77 c-11 -8
-49 -34 -85 -57 -120 -79 -183 -147 -243 -265 -64 -125 -85 -188 -70 -203 8
-8 15 1 23 28 19 58 69 153 104 198 32 41 58 66 64 60 2 -2 -21 -55 -51 -117
-30 -62 -67 -150 -82 -195 l-27 -81 28 -52 c79 -146 273 -238 446 -212 109 16
264 42 347 58 110 21 238 18 306 -7 104 -39 471 -297 451 -317 -2 -1 -67 23
-146 53 -78 31 -144 54 -147 52 -2 -3 16 -22 41 -42 61 -49 63 -77 4 -41 -124
77 -342 166 -408 166 -15 0 -72 -9 -126 -20 -54 -10 -182 -24 -284 -30 -102
-6 -230 -18 -285 -27 -81 -13 -145 -14 -342 -9 -160 4 -244 3 -248 -4 -6 -10
87 -60 112 -60 18 0 63 -22 63 -31 0 -4 -9 -11 -21 -14 -12 -4 -38 -21 -58
-39 -48 -41 -98 -76 -110 -76 -11 0 -42 100 -35 112 8 12 -62 210 -102 290
-19 37 -42 88 -53 115 -10 26 -22 56 -26 65 -6 15 1 17 58 17 67 -1 96 9 135
44 30 28 40 71 47 199 6 117 16 156 42 164 63 20 163 69 333 162 189 103 256
128 345 131 l20 0 -20 -15z m-955 -340 c0 -8 -71 -36 -78 -30 -3 3 10 12 29
20 37 17 49 19 49 10z m-183 -329 c25 -17 66 -102 59 -120 -3 -8 2 -19 10 -25
8 -7 14 -19 14 -28 0 -8 7 -20 16 -26 12 -9 14 -21 9 -50 l-8 -38 -15 33 c-9
17 -17 28 -19 22 -6 -18 48 -188 64 -200 24 -18 13 -16 -33 7 -61 30 -86 56
-174 183 -88 128 -94 153 -45 175 34 16 81 -3 117 -47 15 -17 32 -31 39 -31 8
0 8 4 1 13 -25 31 -63 110 -58 122 3 8 0 16 -7 19 -7 2 -7 5 -2 5 6 1 20 -6
32 -14z m-3424 -381 c56 -43 184 -140 284 -216 100 -76 192 -152 204 -169 l22
-31 -7 -467 c-4 -256 -11 -483 -17 -503 -5 -20 -22 -50 -38 -65 -43 -43 -419
-313 -436 -313 -8 0 -22 -12 -32 -26 -9 -15 -48 -41 -90 -61 -115 -55 -78 -74
-554 289 -117 90 -170 136 -179 159 -10 24 -13 135 -13 495 1 451 2 465 22
507 15 30 39 56 79 83 31 21 64 44 72 51 111 87 444 326 473 339 59 27 99 13
210 -72z m3581 60 c3 -8 2 -12 -4 -9 -6 3 -10 10 -10 16 0 14 7 11 14 -7z
m-20 -25 c-8 -13 -24 -1 -24 18 0 13 3 13 15 3 8 -7 12 -16 9 -21z m1706 -36
c74 -24 175 -81 211 -120 32 -33 33 -35 9 -28 -14 4 -59 24 -100 45 -41 21
-104 48 -140 60 -71 25 -96 42 -86 59 8 12 31 8 106 -16z m-6259 -228 l39
-129 0 -181 c0 -99 -7 -272 -15 -385 -8 -113 -15 -276 -15 -362 0 -133 -3
-166 -20 -210 -11 -29 -20 -62 -20 -72 0 -32 -42 -137 -54 -133 -12 4 -47 120
-71 233 -30 145 -47 339 -48 529 0 250 18 394 83 655 34 133 56 193 72 188 5
-2 28 -62 49 -133z m4624 125 c3 -5 2 -10 -4 -10 -5 0 -13 5 -16 10 -3 6 -2
10 4 10 5 0 13 -4 16 -10z m-2125 -21 c-14 -12 -104 -65 -200 -119 -96 -53
-225 -125 -286 -159 -190 -107 -264 -202 -293 -380 -25 -148 -90 -444 -100
-454 -14 -14 -14 48 -1 392 11 256 12 265 39 325 39 86 95 132 218 181 159 62
627 234 638 234 6 0 -1 -9 -15 -20z m4850 -81 c0 -7 -27 -54 -59 -103 -101
-156 -225 -251 -381 -292 -80 -21 -240 -20 -332 1 -69 16 -238 77 -238 86 0 3
28 6 63 6 166 3 172 6 96 45 -57 29 -219 149 -219 162 0 3 33 -8 73 -23 199
-77 458 -87 702 -27 76 18 106 32 190 89 116 77 105 71 105 56z m-1626 -78
c-5 -5 -88 -46 -183 -90 l-174 -80 48 47 c38 38 65 54 139 79 50 18 109 39
131 47 41 16 56 14 39 -3z m-1017 -106 c-3 -3 -13 8 -21 25 -23 43 -19 52 5
13 12 -18 19 -35 16 -38z m953 -25 c-20 -13 -297 -162 -393 -211 -43 -22 -81
-38 -84 -34 -11 10 54 61 103 80 27 10 121 54 209 97 87 44 164 79 170 78 5 0
3 -5 -5 -10z m-1744 -564 c45 -8 114 -91 114 -138 0 -22 -7 -41 -21 -53 -27
-24 -102 -114 -96 -114 3 0 29 22 58 50 31 29 64 50 77 50 12 0 22 -2 22 -4 0
-26 -44 -85 -120 -162 l-94 -95 -2 -157 c-1 -138 -5 -171 -31 -270 -16 -62
-25 -108 -20 -103 5 5 17 38 27 72 21 78 42 92 34 22 -4 -35 -3 -44 5 -33 6 8
11 25 11 37 0 12 5 25 10 28 6 4 10 -11 10 -39 0 -36 3 -44 15 -40 37 15 -6
-104 -74 -204 -48 -72 -44 -71 67 4 35 25 67 42 72 39 10 -6 -20 -96 -57 -171
-42 -87 -216 -317 -254 -337 -31 -16 -65 -17 -399 -15 -339 3 -367 4 -393 22
-38 26 -50 51 -93 202 -20 71 -43 138 -50 149 -8 11 -14 32 -14 48 0 15 -7 42
-16 60 -10 17 -35 90 -56 162 -47 156 -46 173 25 270 28 39 115 156 192 260
78 105 181 245 229 313 86 119 103 137 155 152 27 8 613 3 667 -5z m1344 -20
c0 -2 -21 -19 -47 -36 -27 -18 -70 -50 -96 -72 -26 -22 -49 -38 -51 -36 -1 2
0 30 3 62 l6 59 50 4 c28 2 64 8 80 13 34 11 55 13 55 6z m-3241 -674 c243
-82 449 -155 457 -162 21 -17 50 -76 59 -119 3 -19 16 -60 27 -90 11 -30 20
-68 20 -85 0 -16 9 -47 19 -67 11 -21 19 -48 19 -60 0 -13 21 -94 46 -181 44
-151 45 -159 32 -200 -15 -45 -56 -79 -340 -284 -62 -45 -147 -107 -188 -137
-122 -91 -97 -93 -474 33 -548 184 -559 189 -582 217 -11 14 -33 67 -48 117
-16 51 -41 135 -56 187 -117 387 -122 406 -117 447 5 48 30 83 84 120 21 14
56 43 77 64 22 21 45 39 51 39 7 0 18 7 25 15 7 8 93 74 191 146 160 117 207
145 245 148 6 1 210 -66 453 -148z m3009 130 c51 -26 172 -59 300 -81 l107
-20 -125 5 c-139 5 -350 48 -350 71 0 20 11 44 21 44 6 0 26 -8 47 -19z m-27
-96 c80 -36 163 -56 259 -60 70 -4 150 -25 150 -39 0 -2 -48 -4 -107 -5 -120
-1 -193 -9 -193 -21 0 -13 42 -20 128 -20 53 0 81 -4 77 -10 -3 -5 -15 -10
-26 -10 -11 0 -17 -4 -14 -10 3 -5 31 -10 61 -10 30 0 54 -4 54 -9 0 -4 13 -7
30 -5 44 5 45 -12 2 -29 -73 -29 -181 -40 -322 -33 -124 5 -138 4 -167 -14
-47 -28 -41 -40 20 -42 28 0 65 -2 81 -3 16 -1 61 4 100 11 96 19 104 16 26
-7 -69 -20 -263 -42 -297 -33 -15 4 -38 -10 -84 -51 -35 -32 -84 -71 -109 -88
-25 -17 -65 -48 -89 -69 -84 -73 -61 -23 46 100 35 40 80 98 100 130 81 126
163 265 163 277 0 6 9 20 20 30 11 10 20 24 20 32 0 18 10 17 71 -12z m-4956
-74 c-6 -19 8 -237 20 -326 l6 -40 -18 24 c-23 32 -83 169 -83 191 0 25 31
110 40 110 4 0 13 14 19 30 11 33 26 42 16 11z m4035 -338 c0 -12 -53 -84 -58
-79 -8 9 7 54 24 70 16 17 34 21 34 9z m130 -78 c0 -29 -72 -216 -120 -311
-50 -100 -55 -113 -29 -84 22 26 144 202 207 299 1 3 7 0 12 -5 15 -15 -9
-144 -34 -184 -37 -57 -130 -167 -243 -288 -105 -113 -309 -286 -324 -276 -15
9 -10 39 16 90 14 27 35 78 46 114 12 36 38 88 59 115 20 28 74 102 120 165
136 188 155 211 158 201 2 -5 -8 -33 -22 -62 -14 -29 -24 -54 -22 -56 5 -5 57
90 76 138 14 35 56 115 73 137 9 12 27 17 27 7z m-3255 -811 c83 -6 126 -16
255 -60 85 -29 303 -102 485 -164 278 -93 338 -117 382 -151 29 -22 61 -42 70
-46 33 -12 103 -66 103 -80 0 -18 -99 -17 -270 3 -402 46 -826 205 -1134 425
-93 66 -99 92 -21 83 17 -2 75 -6 130 -10z"/>
<path d="M2990 5864 c-66 -18 -126 -45 -199 -92 -55 -35 -161 -129 -161 -143
0 -4 32 16 72 46 187 141 253 157 587 140 106 -6 152 -5 148 2 -4 6 -26 14
-49 17 -24 4 -79 15 -123 26 -94 23 -198 25 -275 4z"/>
<path d="M2968 5742 c-52 -18 -128 -58 -128 -68 0 -3 12 2 28 10 70 36 136 47
291 47 194 -1 193 18 0 25 -113 4 -143 2 -191 -14z"/>
<path d="M2804 5654 c-18 -14 -18 -15 4 -4 12 6 22 13 22 15 0 8 -5 6 -26 -11z"/>
<path d="M3320 5570 c-16 -5 18 -8 93 -9 72 -1 117 3 117 9 0 12 -173 12 -210
0z"/>
<path d="M4247 4264 c-4 -4 -7 -17 -7 -28 1 -19 1 -20 11 -3 11 19 8 43 -4 31z"/>
<path d="M5304 2075 c22 -16 73 -20 94 -6 9 5 -3 10 -34 15 -73 10 -83 8 -60
-9z"/>
<path d="M5480 1960 c-10 -7 11 -10 70 -10 47 0 92 5 100 10 10 7 -11 10 -70
10 -47 0 -92 -5 -100 -10z"/>
<path d="M3905 6452 c-47 -4 -165 -63 -206 -103 -21 -21 -58 -67 -84 -104 -43
-64 -45 -69 -35 -105 9 -34 15 -40 47 -46 42 -8 153 10 194 32 16 8 32 13 36
12 4 -1 22 5 39 14 17 9 52 28 78 42 57 30 187 140 210 178 9 14 16 36 16 47
0 19 -6 21 -62 21 -35 0 -81 2 -103 5 -61 8 -97 10 -130 7z"/>
<path d="M7637 4365 c-47 -12 -122 -57 -145 -87 -7 -9 -19 -24 -27 -32 -8 -8
-15 -18 -15 -23 0 -14 -72 -79 -108 -97 -46 -24 -119 -29 -172 -12 -25 7 -54
14 -65 13 -11 0 -32 3 -47 8 -26 7 -28 5 -28 -22 0 -21 9 -37 33 -56 43 -36
106 -77 116 -77 5 0 11 -6 14 -13 5 -15 92 -43 117 -39 9 1 41 -6 72 -17 32
-11 89 -23 127 -27 63 -6 74 -4 129 22 34 16 61 33 61 38 1 4 14 25 30 45 15
20 39 69 51 109 13 39 26 72 31 72 4 0 11 10 14 21 10 31 55 67 92 75 20 4 33
13 37 27 9 34 6 36 -124 66 -70 17 -142 19 -193 6z m23 -205 c0 -36 -38 -97
-73 -119 -39 -24 -127 -30 -127 -8 0 11 175 144 193 146 4 1 7 -8 7 -19z"/>
<path d="M6305 2775 c-55 -19 -94 -45 -145 -95 -27 -28 -50 -53 -50 -56 0 -6
-40 -63 -57 -82 -23 -24 -20 -78 5 -106 14 -15 27 -17 77 -13 33 3 78 12 100
20 22 8 67 25 100 37 33 12 62 25 65 30 3 4 20 15 37 24 64 32 109 68 170 134
35 37 63 70 63 73 1 22 -40 33 -123 36 -51 1 -119 4 -152 6 -33 1 -73 -2 -90
-8z"/>
</g>
</svg>
